<?xml version="1.0" standalone="no"?>
<!DOCTYPE svg PUBLIC "-//W3C//DTD SVG 20010904//EN"
 "http://www.w3.org/TR/2001/REC-SVG-20010904/DTD/svg10.dtd">
<svg version="1.0" xmlns="http://www.w3.org/2000/svg"
 width="80.000000pt" height="80.000000pt" viewBox="0 0 80.000000 80.000000"
 preserveAspectRatio="xMidYMid meet">

<g transform="translate(0.000000,80.000000) scale(0.100000,-0.100000)"
fill="#000000" stroke="none">
<path d="M283 776 c-138 -45 -245 -167 -272 -309 -5 -26 -6 -47 -2 -47 3 0 56
50 116 111 64 64 127 119 150 129 106 48 212 34 316 -42 14 -10 23 -6 52 25
l35 37 -32 27 c-61 52 -133 77 -231 80 -57 2 -106 -2 -132 -11z"/>
<path d="M315 580 c-22 -11 -98 -78 -169 -149 l-130 -130 12 -38 c24 -78 19
-80 181 81 143 143 151 149 190 149 22 0 48 -6 56 -13 14 -12 22 -8 53 24 36
36 37 37 17 53 -60 46 -144 56 -210 23z"/>
<path d="M600 454 c-153 -155 -181 -172 -237 -149 -36 15 -37 15 -70 -17 -18
-17 -33 -35 -33 -39 0 -15 69 -49 111 -55 90 -12 120 5 275 158 l142 140 -20
49 c-11 27 -24 49 -27 49 -3 0 -67 -61 -141 -136z"/>
<path d="M675 260 c-130 -130 -170 -153 -270 -154 -74 -1 -120 12 -172 51 -17
12 -36 23 -40 23 -5 0 -24 -15 -42 -34 l-32 -33 33 -28 c18 -16 58 -40 88 -54
48 -23 68 -26 160 -26 93 0 112 3 162 27 67 31 140 96 174 154 33 56 56 127
52 159 -3 24 -11 17 -113 -85z"/>
</g>
</svg>
